<svg width="121" height="55" viewBox="0 0 121 55" fill="none" xmlns="http://www.w3.org/2000/svg">
<path d="M25.0936 27.6919C25.6433 25.8047 25.1319 24.1483 23.9236 23.204L23.916 23.1693C21.985 21.9761 21.1198 19.6077 21.9069 16.9014C22.7675 13.9447 21.0402 11.5597 18.0388 11.5597C15.0374 11.5597 11.9135 13.9447 11.059 16.9014C10.4955 18.8413 11.0514 20.5339 12.3499 21.4768C14.1967 22.7062 15.019 25.0384 14.2472 27.6919C13.3867 30.6471 15.114 33.0336 18.1154 33.0336C21.1167 33.0336 24.2422 30.6471 25.0936 27.6919Z" fill="#B6FF00"/>
<path d="M75.8309 34.0369L75.8599 34.0022C78.4862 32.7952 80.702 30.4495 81.4889 27.7493C82.3465 24.8016 85.4581 22.4211 88.4551 22.4211C91.4517 22.4211 93.1791 24.8016 92.32 27.7493C91.7564 29.6862 90.2189 31.3696 88.3737 32.3141C85.8149 33.5405 83.645 35.8487 82.8611 38.5126C82.0036 41.4619 78.8904 43.8423 75.8935 43.8423C72.8968 43.8423 71.171 41.4619 72.0285 38.5126C72.6027 36.6299 74.076 34.9783 75.8309 34.0369Z" fill="#B6FF00"/>
<path d="M38.5237 27.6918C39.3107 24.9855 41.5543 22.6247 44.1575 21.4179L44.1864 21.3817C45.9614 20.4388 47.4375 18.7825 47.9873 16.8953C48.8479 13.9386 47.1205 11.5536 44.1192 11.5536C41.1177 11.5536 37.994 13.9386 37.1395 16.8953C36.4241 19.3527 34.536 21.5069 32.2391 22.7891C30.129 23.6429 28.3052 25.4954 27.6835 27.6315C26.9071 30.3031 24.7526 32.6715 22.1968 33.883C20.3362 34.8076 18.7712 36.5167 18.2016 38.4762C17.341 41.4316 19.0683 43.8181 22.0697 43.8181C25.0711 43.8181 28.195 41.4316 29.0494 38.4762L29.0647 38.422C29.7492 36.0718 31.5348 33.9719 33.7032 32.6715C35.9067 31.8705 37.8546 29.9652 38.5022 27.7386L38.5176 27.6858L38.5237 27.6918Z" fill="#B6FF00"/>
<path d="M92.8005 21.4451V21.4104C91.5753 20.4645 91.0746 18.8052 91.6244 16.9135C92.4865 13.9507 95.6059 11.5597 98.6257 11.5597C101.645 11.5597 103.373 13.9507 102.509 16.9135C101.792 19.3754 102.434 21.5356 103.982 22.8193C105.601 23.6762 106.349 25.5347 105.726 27.6738C104.947 30.3499 105.772 32.6883 107.631 33.9025C108.934 34.8485 109.493 36.5424 108.927 38.4885C108.065 41.4512 104.937 43.8422 101.927 43.8422C98.9164 43.8422 97.1801 41.4512 98.0419 38.4885C98.7604 36.025 98.1233 33.8483 96.5566 32.5628C94.955 31.7076 94.2032 29.8687 94.8264 27.7266C95.5889 25.0142 94.7144 22.6595 92.8005 21.4451Z" fill="#B6FF00"/>
<path d="M78.0789 27.8825C78.938 24.9257 77.2105 22.5408 74.2093 22.5408C73.2645 22.5546 72.3335 22.767 71.4788 23.1638H71.4606C71.4192 23.1819 71.3548 23.2166 71.3073 23.2347C70.7652 23.4836 68.9401 24.2907 67.2953 24.2907C65.9172 24.2907 64.755 23.7023 64.2021 23.3644C64.0936 23.2762 63.9767 23.1984 63.8531 23.1321L63.8407 23.1155C63.1491 22.7252 62.3621 22.528 61.565 22.5453H61.4213C60.5252 22.5781 59.6452 22.7901 58.8348 23.1683H58.8163C58.775 23.1864 58.7109 23.2211 58.6634 23.2392C58.1213 23.4881 56.2973 24.2952 54.6513 24.2952C53.5782 24.2717 52.5313 23.9637 51.6208 23.4037C50.9316 22.8515 50.0068 22.5498 48.9226 22.5498H48.7771C45.7863 22.6388 42.7514 24.9891 41.9075 27.8915C41.3318 29.8677 41.9321 31.5949 43.2858 32.5211C45.099 33.749 45.8767 36.0466 45.1095 38.6819C44.2491 41.6372 45.9763 44.0237 48.9778 44.0237H49.0864C50.0312 44.01 50.9621 43.7974 51.8169 43.4006H51.8351C51.8764 43.3826 51.9408 43.3464 51.9883 43.3299C52.532 43.0793 54.3556 42.2738 56.0004 42.2738C57.5317 42.2738 58.8792 43.0041 59.3692 43.3071L59.5545 43.4143C59.5567 43.414 59.5588 43.4146 59.5607 43.4152C59.5625 43.4161 59.5641 43.4177 59.5653 43.4192C59.5666 43.421 59.5675 43.4228 59.5675 43.425C59.5678 43.4268 59.5675 43.4289 59.5669 43.4307C60.2671 43.8294 61.0643 44.0325 61.8731 44.0191C64.8743 44.0191 67.9983 41.6327 68.8528 38.6776C69.7072 35.7222 67.9844 33.3358 64.9832 33.3358C64.0384 33.3498 63.1074 33.562 62.2527 33.9589H62.2345C62.1928 33.9768 62.1287 34.0116 62.0812 34.0298C61.5376 34.2787 59.7136 35.0857 58.0692 35.0857C56.5379 35.0857 55.1903 34.3557 54.7003 34.0524L54.515 33.9452C54.4965 33.9452 54.5027 33.9272 54.5027 33.9272C54.4287 33.8782 54.3497 33.8365 54.2668 33.8036C53.5344 33.1951 52.9964 32.3907 52.7173 31.4877C54.1841 31.5423 55.446 32.2421 55.9054 32.5211L56.0923 32.6283C56.0944 32.6283 56.0963 32.6286 56.0981 32.6295C56.1003 32.6301 56.1018 32.6316 56.1031 32.6332C56.1043 32.635 56.1049 32.6368 56.1052 32.639C56.1055 32.6408 56.1052 32.6429 56.1046 32.645C56.8049 33.0434 57.602 33.2468 58.4105 33.2331C59.5255 33.213 60.6178 32.9191 61.5882 32.3779C62.2955 32.0582 63.7504 31.4728 65.1608 31.4728C66.6921 31.4728 68.0396 32.2028 68.5296 32.5062L68.7149 32.6131C68.7331 32.6131 68.727 32.6313 68.727 32.6313C69.4276 33.0291 70.2247 33.2319 71.0332 33.2182C74.0822 33.2243 77.2182 30.8377 78.0789 27.8825Z" fill="#B6FF00"/>
<path d="M55.401 22.0906C56.3458 22.0768 57.2764 21.8644 58.1312 21.4676H58.1497C58.191 21.4495 58.2552 21.4133 58.3027 21.3967C58.8463 21.1463 60.6702 20.3407 62.3147 20.3407C63.846 20.3407 65.1936 21.0709 65.6838 21.3741L65.8689 21.4812C65.871 21.481 65.8732 21.4814 65.875 21.4823C65.8769 21.4831 65.8787 21.4844 65.8796 21.4861C65.8809 21.4878 65.8818 21.4897 65.8821 21.4918C65.8824 21.4938 65.8821 21.4959 65.8812 21.4978C66.5815 21.8962 67.3789 22.0996 68.1874 22.0861C71.1887 22.0861 74.3126 19.6996 75.1671 16.7444C76.0216 13.7892 74.2988 11.4027 71.2975 11.4027C70.3527 11.4165 69.4218 11.629 68.5673 12.0257H68.5488C68.5075 12.0438 68.443 12.0785 68.3955 12.0966C67.8535 12.3455 66.0283 13.1526 64.3835 13.1526C62.8522 13.1526 61.5047 12.4225 61.0147 12.1193L60.8294 12.0121C60.8112 12.0121 60.8173 11.9941 60.8173 11.9941C60.1167 11.5961 59.3196 11.3933 58.5111 11.4072C55.5095 11.4072 52.3859 13.7922 51.5329 16.7489C50.6797 19.7056 52.3994 22.0906 55.401 22.0906Z" fill="#B6FF00"/>
</svg>
