<svg width="28" height="28" viewBox="0 0 28 28" fill="none" xmlns="http://www.w3.org/2000/svg">
<path fill-rule="evenodd" clip-rule="evenodd" d="M24.469 19.1839H11.2422C9.03761 14.5326 7.05202 9.65174 4.96247 5H0V6.7684H3.75013C5.73561 11.5441 7.82526 16.1948 9.92488 20.8466H24.469C24.526 20.2939 24.526 19.7367 24.469 19.1839ZM21.2721 22.6151C20.7714 22.7313 20.3159 22.9938 19.9628 23.3697C19.6098 23.7456 19.3749 24.2181 19.2875 24.7279C19.2079 25.0699 19.1961 25.4243 19.2528 25.7709C19.3095 26.1175 19.4336 26.4494 19.6179 26.7476C19.8023 27.0457 20.0433 27.3043 20.3272 27.5085C20.6111 27.7127 20.9322 27.8585 21.2721 27.9375C21.7111 28.0343 22.1671 28.0184 22.5984 27.8916C23.0297 27.7647 23.4225 27.5308 23.7407 27.2113C24.0589 26.8919 24.2923 26.4971 24.4195 26.0632C24.5468 25.6293 24.5638 25.1702 24.469 24.7279C24.3214 24.022 23.9024 23.4035 23.3034 23.0076C22.7044 22.6118 21.9741 22.4706 21.2721 22.6151ZM12.5676 22.6151C12.0615 22.7449 11.5996 23.0097 11.2302 23.3815C10.8609 23.7533 10.598 24.2184 10.469 24.7279C10.3515 25.4309 10.5026 26.1525 10.8919 26.7479C11.2812 27.3433 11.8799 27.7683 12.5676 27.9375C13.0036 28.0139 13.4514 27.9837 13.8733 27.8496C14.2953 27.7155 14.679 27.4813 14.9924 27.1668C15.3057 26.8522 15.5395 26.4666 15.6741 26.0422C15.8086 25.6178 15.8399 25.1671 15.7655 24.7279C15.6178 24.0218 15.1986 23.4033 14.5994 23.0074C14.0002 22.6115 13.2698 22.4705 12.5676 22.6151ZM12.2345 17.3006H24.583L28 8.54589H8.8175L9.37078 10.3235H12.6737L13.3408 12.0919H10.1439L10.8031 13.7546H14.114L14.7722 15.6379H11.5753L12.2345 17.3006Z" fill="white"/>
</svg>
