<svg width="28" height="28" viewBox="0 0 28 28" fill="none" xmlns="http://www.w3.org/2000/svg">
<path d="M8.16665 8.74998C8.16665 7.59625 8.50877 6.46843 9.14975 5.50914C9.79073 4.54985 10.7018 3.80218 11.7677 3.36067C12.8336 2.91915 14.0065 2.80363 15.138 3.02871C16.2696 3.2538 17.309 3.80937 18.1248 4.62518C18.9406 5.44099 19.4962 6.48039 19.7213 7.61195C19.9464 8.74351 19.8308 9.9164 19.3893 10.9823C18.9478 12.0482 18.2001 12.9593 17.2408 13.6002C16.2816 14.2412 15.1537 14.5833 14 14.5833C12.4535 14.5815 10.9708 13.9663 9.87721 12.8728C8.78364 11.7792 8.16847 10.2965 8.16665 8.74998ZM18.8034 15.8332C18.145 15.6692 17.4489 15.76 16.8546 16.0872C15.981 16.5715 14.9987 16.8256 13.9999 16.8256C13.0011 16.8256 12.0187 16.5715 11.1452 16.0872C10.5507 15.7604 9.85485 15.6697 9.19642 15.8332C6.87296 16.4199 5.25 18.5288 5.25 20.9613V22.1404C5.2492 22.8816 5.44794 23.6092 5.82537 24.247C5.982 24.5039 6.20237 24.7158 6.46508 24.8624C6.7278 25.0089 7.02393 25.085 7.32474 25.0833H20.6753C20.9762 25.085 21.2725 25.0088 21.5352 24.862C21.798 24.7153 22.0183 24.503 22.1746 24.2459C22.5522 23.6086 22.751 22.8812 22.75 22.1404V20.9613C22.75 18.5288 21.127 16.4199 18.8034 15.8332Z" fill="white"/>
</svg>
