<svg width="28" height="28" viewBox="0 0 28 28" fill="none" xmlns="http://www.w3.org/2000/svg">
<path d="M22.4231 17.816L19.4598 17.4776C18.7481 17.396 18.0481 17.641 17.5464 18.1426L15.3998 20.2893C12.0981 18.6093 9.39145 15.9143 7.71145 12.601L9.86978 10.4426C10.118 10.1947 10.3068 9.8937 10.422 9.56231C10.5371 9.23092 10.5757 8.87773 10.5348 8.52929L10.1964 5.58929C10.0564 4.41096 9.06478 3.52429 7.87478 3.52429H5.85645C4.53812 3.52429 3.44145 4.62096 3.52312 5.93929C4.14145 15.9026 12.1098 23.8593 22.0614 24.4776C23.3798 24.5593 24.4764 23.4626 24.4764 22.1443V20.126C24.4881 18.9476 23.6014 17.956 22.4231 17.816Z" fill="white"/>
</svg>
