<svg width="26" height="26" viewBox="0 0 26 26" fill="none" xmlns="http://www.w3.org/2000/svg">
<g clip-path="url(#clip0_630_250)">
<path d="M23.3886 9.27307C23.3774 8.42739 23.2191 7.59011 22.9208 6.79869C22.6621 6.13114 22.267 5.52488 21.7608 5.01865C21.2546 4.51242 20.6483 4.11735 19.9808 3.85869C19.1995 3.56543 18.3742 3.40685 17.5399 3.38972C16.4657 3.34171 16.1252 3.32831 13.3984 3.32831C10.6717 3.32831 10.3222 3.32831 9.25585 3.38972C8.42193 3.40698 7.59698 3.56555 6.81609 3.85869C6.14843 4.11717 5.54207 4.51217 5.03582 5.01843C4.52957 5.52468 4.13457 6.13103 3.87609 6.79869C3.58223 7.57934 3.424 8.40448 3.40823 9.23846C3.36022 10.3137 3.3457 10.6543 3.3457 13.381C3.3457 16.1078 3.3457 16.4561 3.40823 17.5236C3.42498 18.3588 3.58242 19.1829 3.87609 19.9656C4.135 20.6331 4.5303 21.2392 5.03672 21.7452C5.54314 22.2512 6.14955 22.6461 6.8172 22.9045C7.59596 23.2095 8.42105 23.3795 9.25697 23.407C10.3323 23.455 10.6728 23.4695 13.3995 23.4695C16.1263 23.4695 16.4758 23.4695 17.5421 23.407C18.3764 23.3905 19.2018 23.2323 19.983 22.9391C20.6504 22.6801 21.2565 22.285 21.7627 21.7788C22.2689 21.2726 22.664 20.6665 22.923 19.9991C23.2167 19.2175 23.3741 18.3934 23.3909 17.5571C23.4389 16.4829 23.4534 16.1424 23.4534 13.4145C23.4512 10.6878 23.4512 10.3417 23.3886 9.27307ZM13.3917 18.5375C10.5399 18.5375 8.2297 16.2272 8.2297 13.3755C8.2297 10.5237 10.5399 8.21342 13.3917 8.21342C14.7608 8.21342 16.0738 8.75728 17.0418 9.72535C18.0099 10.6934 18.5538 12.0064 18.5538 13.3755C18.5538 14.7445 18.0099 16.0575 17.0418 17.0256C16.0738 17.9936 14.7608 18.5375 13.3917 18.5375ZM18.7592 9.22617C18.6011 9.22632 18.4445 9.19529 18.2984 9.13485C18.1523 9.07441 18.0196 8.98575 17.9077 8.87395C17.7959 8.76215 17.7073 8.62939 17.6468 8.48329C17.5864 8.33718 17.5554 8.1806 17.5555 8.02248C17.5555 7.86449 17.5866 7.70803 17.6471 7.56206C17.7076 7.41609 17.7962 7.28346 17.9079 7.17174C18.0196 7.06002 18.1523 6.9714 18.2982 6.91093C18.4442 6.85047 18.6007 6.81935 18.7587 6.81935C18.9167 6.81935 19.0731 6.85047 19.2191 6.91093C19.365 6.9714 19.4977 7.06002 19.6094 7.17174C19.7211 7.28346 19.8097 7.41609 19.8702 7.56206C19.9307 7.70803 19.9618 7.86449 19.9618 8.02248C19.9618 8.68797 19.4236 9.22617 18.7592 9.22617Z" fill="#B6FF00"/>
<path d="M13.3922 16.7284C15.2441 16.7284 16.7453 15.2272 16.7453 13.3753C16.7453 11.5234 15.2441 10.0222 13.3922 10.0222C11.5403 10.0222 10.0391 11.5234 10.0391 13.3753C10.0391 15.2272 11.5403 16.7284 13.3922 16.7284Z" fill="#B6FF00"/>
</g>
<defs>
<clipPath id="clip0_630_250">
<rect width="26" height="26" fill="white"/>
</clipPath>
</defs>
</svg>
