<svg width="26" height="26" viewBox="0 0 26 26" fill="none" xmlns="http://www.w3.org/2000/svg">
<g clip-path="url(#clip0_630_247)">
<path d="M13.3609 4.07059H13.4975C14.7595 4.07519 21.1542 4.12125 22.8783 4.58492C23.3996 4.72643 23.8745 5.00225 24.2558 5.38484C24.637 5.76742 24.9111 6.24335 25.0508 6.76508C25.2059 7.3485 25.3149 8.12077 25.3886 8.9176L25.4039 9.07727L25.4377 9.47645L25.45 9.63613C25.5498 11.0394 25.5621 12.3536 25.5636 12.6408V12.7559C25.5621 13.0538 25.5482 14.457 25.4377 15.9187L25.4254 16.0799L25.4116 16.2395C25.3348 17.1178 25.2212 17.9898 25.0508 18.6316C24.9116 19.1535 24.6376 19.6297 24.2563 20.0123C23.875 20.395 23.3998 20.6707 22.8783 20.8117C21.0974 21.2908 14.3281 21.3245 13.39 21.3261H13.172C12.6976 21.3261 10.7355 21.3169 8.67814 21.2462L8.41714 21.237L8.28356 21.2309L8.02102 21.2201L7.75848 21.2094C6.05428 21.1342 4.43144 21.0129 3.68374 20.8102C3.16248 20.6692 2.68742 20.3938 2.30613 20.0114C1.92485 19.6291 1.65074 19.1532 1.51126 18.6316C1.34084 17.9913 1.22723 17.1178 1.15046 16.2395L1.13818 16.0783L1.1259 15.9187C1.05012 14.8783 1.00814 13.8358 1 12.7927L1 12.6039C1.00307 12.2738 1.01535 11.1331 1.09826 9.8741L1.10901 9.71596L1.11361 9.63613L1.1259 9.47645L1.15967 9.07727L1.17503 8.9176C1.24872 8.12077 1.35773 7.34696 1.5128 6.76508C1.65204 6.24314 1.92605 5.76698 2.30735 5.38433C2.68864 5.00169 3.16383 4.726 3.68528 4.58492C4.43298 4.38533 6.05581 4.2625 7.76002 4.18574L8.02102 4.17499L8.2851 4.16578L8.41714 4.16117L8.67968 4.15042C10.1409 4.1034 11.6026 4.0773 13.0646 4.07212H13.3609V4.07059ZM10.8261 8.99897V16.3962L17.2084 12.6991L10.8261 8.99897Z" fill="#B6FF00"/>
</g>
<defs>
<clipPath id="clip0_630_247">
<rect width="24.5651" height="24.5651" fill="white" transform="translate(1 1)"/>
</clipPath>
</defs>
</svg>
